{"title":"The Specialist (1994) Sharon Stone + Stallone (Opt.MULTISUBS)","uid":4512674,"size":768123857,"categoryP":"video","categoryS":"movies","magnet":"?xt=urn:btih:5dae9c459960e6934aedd269e565a8d136867d33&amp;dn=The+Specialist+%281994%29+Sharon+Stone+%2B+Stallone+%28Opt.MULTISUBS%29&amp;tr=udp%3A%2F%2Ftracker.openbittorrent.com%3A80&amp;tr=udp%3A%2F%2Fopen.demonii.com%3A1337&amp;tr=udp%3A%2F%2Ftracker.coppersurfer.tk%3A6969&amp;tr=udp%3A%2F%2Fexodus.desync.com%3A6969","seeders":4,"leechers":4,"uploader":"Kuthumi","files":-1,"time":1226848143,"description":" &lt;a href=&quot;http://www.imdb.com/title/tt0111255/&quot; rel=&quot;nofollow&quot; target=&quot;_NEW&quot;&gt;http://www.imdb.com/title/tt0111255/&lt;/a&gt;\n\nOptional subtitles in separate idx/sub files:\nCroatian (Hrvatski), Czech, Danish, Dutch, English, Finnish, French, German, Greek, Hebrew, Hungarian, Icelandic, Italian, Norwegian, Polish, Portuguese, Spanish, Swedish, Turkish.\n\n(Tip: Click the blue number of Files at top-left to check the contents of this upload and see that your language is really there.)\n\nWith Sharon Stone, Sylvester Stallone, James Woods, Eric Roberts and Rod Steiger.\n\nIt should be forbidden by law to walk like Sharon Stone does in this explosive action film - so sensuously and self-consciously. I like this movie from the top of her career because it has quite a few spectacular explosions, and because the good guys always win with 'Rocky' in the lead.\n\nMy new ripping procedure now produces decent quality for such a long film compressed into just 700 MiB. I enclose a sample for ye weak in faith. \n\nWidescreen DVDrip XviD 2-pass 720x384, really great stereo sound AC3.\nBurn tested, runs well in both my standalone DivX players.\n\nMediaInfo analysis of this rip:\nFormat/Info                      : Audio Video Interleave\nFile size                        : 696 MiB\nDuration                         : 1h 45mn\nOveral bit rate                  : 923 Kbps\n\nVideo\nFormat                           : MPEG-4 Visual\nFormat profile                   : Streaming Video@L1\nFormat settings, BVOP            : Yes\nFormat settings, QPel            : No\nFormat settings, GMC             : No warppoints\nFormat settings, Matrix          : Default\nMuxing mode                      : Packet Bitstream\nCodec ID                         : XVID\nCodec ID/Hint                    : XviD\nDuration                         : 1h 45mn\nBit rate                         : 786 Kbps\nWidth                            : 720 pixels\nHeight                           : 384 pixels\nDisplay aspect ratio             : 1.875\nFrame rate                       : 25.000 fps\nResolution                       : 8 bits\nColorimetry                      : 4:2:0\nScan type                        : Progressive\nBits/(Pixel*Frame)               : 0.114\nStream size                      : 592 MiB\nWriting library                  : XviD 1.2.0.dev47 (UTC 2006-11-01)\n\nAudio\nFormat                           : MPEG Audio\nFormat version                   : Version 1\nFormat profile                   : Layer 3\nCodec ID                         : 55\nCodec ID/Hint                    : MP3\nDuration                         : 1h 45mn\nBit rate mode                    : Constant\nBit rate                         : 128 Kbps\nMinimum bit rate                 : 128 Kbps\nChannel(s)                       : 2 channels\nSampling rate                    : 48.0 KHz\nResolution                       : 16 bits\nStream size                      : 96.5 MiB\nWriting library                  : LAME3.97 \nEncoding settings                : CBR\n\nSource: PAL native (note that PAL/NTSC will give no problems for avi files).","torrent":{"xt":"urn:btih:5dae9c459960e6934aedd269e565a8d136867d33","amp;dn":"The+Specialist+%281994%29+Sharon+Stone+%2B+Stallone+%28Opt.MULTISUBS%29","amp;tr":["udp%3A%2F%2Ftracker.openbittorrent.com%3A80","udp%3A%2F%2Fopen.demonii.com%3A1337","udp%3A%2F%2Ftracker.coppersurfer.tk%3A6969","udp%3A%2F%2Fexodus.desync.com%3A6969"],"infoHash":"5dae9c459960e6934aedd269e565a8d136867d33","infoHashBuffer":{"type":"Buffer","data":[93,174,156,69,153,96,230,147,74,237,210,105,229,101,168,209,54,134,125,51]},"announce":[],"urlList":[]}}